<svg width="60" height="60" viewBox="0 0 60 60" fill="none" xmlns="http://www.w3.org/2000/svg">
<path d="M30 60C46.5685 60 60 46.5685 60 30C60 13.4315 46.5685 0 30 0C13.4315 0 0 13.4315 0 30C0 46.5685 13.4315 60 30 60Z" fill="#FAE300"/>
<path d="M30.2779 15.7891C20.532 15.7891 12.6328 22.0334 12.6328 29.7406C12.6328 34.7507 15.979 39.1483 20.9983 41.6076C20.6325 42.9882 19.6634 46.5995 19.4714 47.3766C19.2337 48.3366 19.828 48.3274 20.212 48.0623C20.5137 47.8611 25.0484 44.7801 27.0049 43.4453C28.0654 43.6007 29.1626 43.683 30.2779 43.683C40.0239 43.683 47.9231 37.4386 47.9231 29.7315C47.9231 22.0334 40.0239 15.7891 30.2779 15.7891Z" fill="#391B1B"/>
<path d="M23.1747 25.626H18.0183C17.5338 25.626 17.1406 26.0191 17.1406 26.5037C17.1406 26.9882 17.5338 27.3813 18.0183 27.3813H19.7005V33.5617C19.7005 33.7903 19.792 34.0097 19.9565 34.1651C20.112 34.3205 20.3314 34.412 20.5599 34.412H20.7519C20.9805 34.412 21.1999 34.3205 21.3553 34.1651C21.5199 34.0006 21.6113 33.7811 21.6113 33.5617V27.3813H23.193C23.6776 27.3813 24.0707 26.9882 24.0707 26.5037C24.0524 26.0191 23.6593 25.626 23.1747 25.626Z" fill="#FAE300"/>
<path d="M35.5783 32.7761H33.1829V26.4586C33.1829 25.9284 32.7532 25.5078 32.2321 25.5078C31.7018 25.5078 31.2812 25.9375 31.2812 26.4586V33.2607C31.2812 33.3156 31.2904 33.3613 31.2995 33.4161C31.2904 33.4618 31.2812 33.5167 31.2812 33.5715C31.2812 34.0104 31.6378 34.3669 32.0767 34.3669H35.5874C36.0262 34.3669 36.3828 34.0104 36.3828 33.5715C36.3737 33.1327 36.0171 32.7761 35.5783 32.7761Z" fill="#FAE300"/>
<path d="M43.2512 33.0596L40.5724 29.5488L42.986 27.1352C43.3152 26.8061 43.3152 26.2758 42.986 25.9467C42.6569 25.6175 42.1266 25.6175 41.7975 25.9467L38.8079 28.9363V26.4586C38.8079 25.9284 38.3782 25.5078 37.8571 25.5078C37.3268 25.5078 36.9062 25.9375 36.9062 26.4586V33.471C36.9062 34.0012 37.3359 34.4218 37.8571 34.4218C38.3873 34.4218 38.8079 33.9921 38.8079 33.471V31.3042L39.3473 30.7648L41.8798 34.0835C42.1632 34.4584 42.6935 34.5406 43.0683 34.2572C43.4523 33.9738 43.5346 33.4435 43.2512 33.0596Z" fill="#FAE300"/>
<path d="M30.5619 33.2875L27.9928 26.2477L27.9837 26.2386C27.8191 25.8089 27.3437 25.498 26.7769 25.498C26.146 25.498 25.634 25.882 25.5243 26.3849C25.506 26.4214 25.4878 26.458 25.4786 26.5037L22.9461 33.2875C22.7907 33.7355 23.0284 34.22 23.4672 34.3755C23.9152 34.5309 24.3998 34.2932 24.5552 33.8543L24.9941 32.6018H28.5139L28.9528 33.8543C29.1082 34.3023 29.5928 34.5309 30.0407 34.3755C30.4887 34.22 30.7173 33.7355 30.5619 33.2875ZM25.5518 31.011L26.7311 27.6374C26.7403 27.6374 26.7586 27.6374 26.7677 27.6374L27.9471 31.011H25.5518Z" fill="#FAE300"/>
</svg>
