<svg width="60" height="60" viewBox="0 0 60 60" fill="none" xmlns="http://www.w3.org/2000/svg">
<path d="M30 60C46.5685 60 60 46.5685 60 30C60 13.4315 46.5685 0 30 0C13.4315 0 0 13.4315 0 30C0 46.5685 13.4315 60 30 60Z" fill="#E5E8EB"/>
<path d="M27.6328 31.184C28.1414 31.8639 28.7902 32.4264 29.5353 32.8335C30.2804 33.2406 31.1043 33.4827 31.9512 33.5433C32.7981 33.604 33.6481 33.4818 34.4436 33.185C35.2391 32.8883 35.9615 32.4239 36.5618 31.8234L40.1144 28.2708C41.193 27.1541 41.7898 25.6584 41.7763 24.1059C41.7628 22.5534 41.1401 21.0684 40.0423 19.9706C38.9445 18.8728 37.4594 18.25 35.9069 18.2366C34.3544 18.2231 32.8587 18.8199 31.742 19.8984L29.7052 21.9234" stroke="#191F28" stroke-width="2" stroke-linecap="round" stroke-linejoin="round"/>
<path d="M32.3663 28.8149C31.8578 28.135 31.2089 27.5724 30.4639 27.1654C29.7188 26.7583 28.8948 26.5162 28.0479 26.4556C27.2011 26.3949 26.351 26.5171 25.5555 26.8138C24.76 27.1106 24.0377 27.5749 23.4374 28.1754L19.8848 31.7281C18.8062 32.8448 18.2094 34.3405 18.2229 35.8929C18.2364 37.4454 18.8591 38.9305 19.9569 40.0283C21.0547 41.1261 22.5398 41.7488 24.0923 41.7623C25.6447 41.7758 27.1404 41.179 28.2571 40.1004L30.2821 38.0754" stroke="#191F28" stroke-width="2" stroke-linecap="round" stroke-linejoin="round"/>
</svg>
