<svg width="48" height="48" viewBox="0 0 48 48" fill="none" xmlns="http://www.w3.org/2000/svg">
<path d="M24.6252 35.8452C25.4025 35.8452 26.1481 36.154 26.6977 36.7037C27.2474 37.2534 27.5562 37.9989 27.5562 38.7763C27.5562 39.5537 27.2474 40.2992 26.6977 40.8489C26.1481 41.3986 25.4025 41.7074 24.6252 41.7074C23.8478 41.7074 23.1023 41.3986 22.5526 40.8489C22.0029 40.2992 21.6941 39.5537 21.6941 38.7763C21.6941 37.9989 22.0029 37.2534 22.5526 36.7037C23.1023 36.154 23.8478 35.8452 24.6252 35.8452ZM24.6252 8C27.0939 8.00007 29.4856 8.85984 31.3894 10.4316C33.2932 12.0034 34.5903 14.1891 35.0578 16.6132C35.5252 19.0373 35.134 21.5486 33.9512 23.7156C32.7684 25.8826 30.868 27.5701 28.5762 28.4882C28.2385 28.6164 27.9333 28.8176 27.6823 29.0774C27.5533 29.2239 27.5328 29.4115 27.5357 29.605L27.5562 29.9831C27.5554 30.7301 27.2693 31.4487 26.7565 31.9919C26.2436 32.5352 25.5427 32.8621 24.7969 32.9059C24.0511 32.9496 23.3168 32.707 22.7439 32.2275C22.171 31.748 21.8028 31.0679 21.7146 30.326L21.6941 29.9831V29.2503C21.6941 25.8708 24.42 23.8425 26.3955 23.0481C27.1996 22.7271 27.9009 22.1931 28.4244 21.5034C28.9478 20.8138 29.2735 19.9946 29.3665 19.1339C29.4594 18.2731 29.3162 17.4033 28.9521 16.6178C28.588 15.8323 28.0168 15.1608 27.2999 14.6755C26.5829 14.1901 25.7473 13.9092 24.8828 13.8629C24.0183 13.8167 23.1575 14.0068 22.3928 14.4128C21.6282 14.8189 20.9886 15.4255 20.5427 16.1677C20.0969 16.9098 19.8616 17.7594 19.8622 18.6252C19.8622 19.4025 19.5533 20.1481 19.0037 20.6977C18.454 21.2474 17.7084 21.5562 16.9311 21.5562C16.1537 21.5562 15.4082 21.2474 14.8585 20.6977C14.3088 20.1481 14 19.4025 14 18.6252C14 15.8072 15.1194 13.1046 17.112 11.112C19.1046 9.11943 21.8072 8 24.6252 8Z" fill="#191F28"/>
</svg>
