<svg width="24" height="24" viewBox="0 0 24 24" fill="none" xmlns="http://www.w3.org/2000/svg">
<g clip-path="url(#clip0_773_13872)">
<path d="M13.7295 21C13.5537 21.3031 13.3014 21.5547 12.9978 21.7295C12.6941 21.9044 12.3499 21.9965 11.9995 21.9965C11.6492 21.9965 11.3049 21.9044 11.0013 21.7295C10.6977 21.5547 10.4453 21.3031 10.2695 21" stroke="#191F28" stroke-width="2" stroke-linecap="round" stroke-linejoin="round"/>
<path d="M18.6323 13C18.1874 11.3714 17.9753 9.68804 18.0023 8" stroke="#191F28" stroke-width="2" stroke-linecap="round" stroke-linejoin="round"/>
<path d="M6.26 6.25977C6.08627 6.82338 5.99861 7.40999 6 7.99977C6 14.9998 3 16.9998 3 16.9998H17" stroke="#191F28" stroke-width="2" stroke-linecap="round" stroke-linejoin="round"/>
<path d="M18.0019 8.00011C18.0035 6.91318 17.7098 5.84622 17.1522 4.91321C16.5946 3.98019 15.794 3.21617 14.836 2.70275C13.878 2.18934 12.7984 1.94581 11.7128 1.99818C10.6271 2.05056 9.57604 2.39686 8.67188 3.00011" stroke="#191F28" stroke-width="2" stroke-linecap="round" stroke-linejoin="round"/>
<path d="M1 1L23 23" stroke="#191F28" stroke-width="2" stroke-linecap="round" stroke-linejoin="round"/>
</g>
<defs>
<clipPath id="clip0_773_13872">
<rect width="24" height="24" fill="white"/>
</clipPath>
</defs>
</svg>
