<svg width="30" height="30" viewBox="0 0 30 30" fill="none" xmlns="http://www.w3.org/2000/svg">
<circle cx="15" cy="15" r="14.5" fill="black"/>
<path d="M22.0209 11.6368C21.9141 11.7178 20.0273 12.7565 20.0273 15.0662C20.0273 17.7376 22.4281 18.6827 22.5 18.7061C22.4889 18.7637 22.1186 20.0005 21.2342 21.2606C20.4456 22.3695 19.622 23.4766 18.3691 23.4766C17.1161 23.4766 16.7937 22.7655 15.3473 22.7655C13.9378 22.7655 13.4366 23.5 12.2906 23.5C11.1445 23.5 10.3449 22.4739 9.42544 21.2138C8.36046 19.734 7.5 17.4352 7.5 15.2534C7.5 11.7538 9.82895 9.89784 12.1211 9.89784C13.339 9.89784 14.3542 10.6791 15.1188 10.6791C15.8466 10.6791 16.9816 9.85104 18.3672 9.85104C18.8923 9.85104 20.7791 9.89784 22.0209 11.6368ZM17.7094 8.36949C18.2825 7.70522 18.6878 6.78353 18.6878 5.86184C18.6878 5.73402 18.6768 5.60441 18.6528 5.5C17.7205 5.5342 16.6113 6.10666 15.9425 6.86454C15.4173 7.44779 14.9272 8.36949 14.9272 9.30378C14.9272 9.44419 14.9512 9.58461 14.9622 9.62961C15.0212 9.64041 15.117 9.65301 15.2128 9.65301C16.0493 9.65301 17.1014 9.10576 17.7094 8.36949Z" fill="white"/>
</svg>
